<svg xmlns="http://www.w3.org/2000/svg" viewBox="0 0 600 223.62"><defs><style>.cls-1{fill:#2116e5;}.cls-2{fill:#80889e;}.cls-3{fill:#373e4f;}</style></defs><g id="图层_2" data-name="图层 2"><path class="cls-1" d="M130.56,103.37c0,4.66-4.2,8.43-9.37,8.43H93.05V95h28.14C126.37,95,130.56,98.72,130.56,103.37Zm93.06,8.44A111.81,111.81,0,1,1,111.81,0,111.81,111.81,0,0,1,223.62,111.81Zm-70.82,23c9.37-7.71,15.28-18.76,15.28-31.07,0-23.28-21-42.15-46.89-42.15H55.54V162.07H93.06V145.85h28.42l9.8,16.23h36.8Z"/><path class="cls-2" d="M290.63,159.81h7.16l21.59,31.5h.25v-31.5h7.21v43.67h-7L298,171.55h-.25v31.93h-7.16Z"/><path class="cls-2" d="M335.41,159.81h31.5v6.12H342.56V178h22.88v6.11H342.56v13.21H368v6.12H335.41Z"/><path class="cls-2" d="M371.31,159.81h35.78v6.12H392.78v37.55h-7.16V165.93H371.31Z"/><path class="cls-2" d="M408.31,159.81h8.08L424.58,193h.25l8.62-33.21h7.4L449.48,193h.24l8.2-33.21H466l-12.6,43.67h-7.58l-8.51-32.84h-.24l-8.56,32.84h-7.65Z"/><path class="cls-2" d="M505.75,165.44q5.5,6.1,5.5,16.27t-5.5,16.21Q500,204.34,490,204.34t-15.78-6.49q-5.44-6.16-5.45-16.14t5.45-16.21Q479.82,159,490,159T505.75,165.44Zm-26.3,4.4q-3.56,4.35-3.55,11.87t3.55,11.8Q483.11,198,490,198t10.46-4.35q3.6-4.33,3.61-12t-3.61-12.11q-3.62-4.35-10.46-4.35T479.45,169.84Z"/><path class="cls-2" d="M518,159.81h19.45q6.8,0,10.58,3,4.1,3.36,4.1,9.54a10.44,10.44,0,0,1-1.84,6.05,9.35,9.35,0,0,1-5.56,3.86v.12q5.68,1.29,6.42,7.64l.74,7a10.54,10.54,0,0,0,2.63,6.42h-7.77a10.91,10.91,0,0,1-1.9-5.69l-.55-5.38c-.24-2.4-1-4.12-2.2-5.14s-3.1-1.59-5.63-1.59H525.14v17.8H518Zm7.16,6.12v13.64h11.31a10.14,10.14,0,0,0,6.42-1.78,6.57,6.57,0,0,0,2-5.14q0-3.6-2-5.13t-6.42-1.59Z"/><path class="cls-2" d="M588.07,159.81h9.06l-19.21,18.72L600,203.48h-9.66l-17.25-20.24-5.32,5.19v15h-7.16V159.81h7.16v20.61Z"/><path class="cls-1" d="M485.9,87.48h33.74c6.19,0,11.23-4.39,11.23-9.79s-5-9.79-11.23-9.79H485.9Z"/><path class="cls-3" d="M290.63,19.28h64.69a42.77,42.77,0,0,1,21.94,5.86,43.43,43.43,0,0,1,15.91,15.91A42.84,42.84,0,0,1,399,63a42.45,42.45,0,0,1-7.43,24.39,43.59,43.59,0,0,1-19.5,16l28.67,38.29h-35l-26.22-35h-21v35h-28Zm64.69,59.44a15.05,15.05,0,0,0,11.19-4.63,15.95,15.95,0,0,0,0-22.29,15.21,15.21,0,0,0-11.19-4.55H318.61V78.72Z"/><path class="cls-3" d="M462.69,93.58v20.11h68.18v28H434.71V19.28h96.16v28H462.69V67.36"/><path class="cls-3" d="M572,19.28h28V141.66H572Z"/></g></svg>